<?xml version="1.0" encoding="UTF-8"?>
<svg xmlns="http://www.w3.org/2000/svg" version="1.2" baseProfile="tiny-ps" viewBox="0 0 96 96" width="96" height="96">
  <title>career-ops</title>
  <rect width="96" height="96" rx="14" fill="#D5742E"/>
  <path d="M 32.407 64.702Q 28.975 64.702 26.206 62.401Q 23.437 60.100 21.799 55.810Q 20.161 51.520 20.161 45.592Q 20.161 38.962 22.150 34.048Q 24.139 29.134 27.571 26.443Q 31.003 23.752 35.215 23.752Q 38.803 23.752 40.831 25.156Q 41.611 25.702 41.611 26.872L 41.767 36.388Q 41.767 37.558 40.831 37.558Q 39.973 37.558 39.739 36.544Q 38.647 32.254 37.633 29.914Q 36.619 27.574 35.527 26.677Q 34.435 25.780 33.109 25.780Q 31.549 25.780 29.872 27.574Q 28.195 29.368 27.064 33.385Q 25.933 37.402 25.933 43.954Q 25.933 52.300 28.078 56.512Q 30.223 60.724 33.655 60.724Q 36.385 60.724 38.218 58.462Q 40.051 56.200 41.377 50.272Q 41.611 49.414 42.313 49.414Q 43.249 49.414 43.015 50.974Q 42.157 56.434 40.636 59.437Q 39.115 62.440 37.048 63.571Q 34.981 64.702 32.407 64.702Z" fill="#FFFFFF"/>
  <path d="M 61.643 64.702Q 57.665 64.702 54.506 62.011Q 51.347 59.320 49.475 54.640Q 47.603 49.960 47.603 44.188Q 47.603 38.416 49.475 33.814Q 51.347 29.212 54.545 26.482Q 57.743 23.752 61.643 23.752Q 65.621 23.752 68.780 26.482Q 71.939 29.212 73.811 33.814Q 75.683 38.416 75.683 44.188Q 75.683 49.960 73.850 54.640Q 72.017 59.320 68.819 62.011Q 65.621 64.702 61.643 64.702ZM 61.643 62.752Q 69.755 62.752 69.755 44.188Q 69.755 25.702 61.643 25.702Q 53.531 25.702 53.531 44.188Q 53.531 62.752 61.643 62.752Z" fill="#FFFFFF"/>
</svg>
