<svg xmlns="http://www.w3.org/2000/svg" width="383" height="96" viewBox="0 0 383 96" role="img" aria-label="career-ops">
  <rect width="96" height="96" rx="14" fill="#DD7627"/>
  <path d="M 32.407 64.702Q 28.975 64.702 26.206 62.401Q 23.437 60.100 21.799 55.810Q 20.161 51.520 20.161 45.592Q 20.161 38.962 22.150 34.048Q 24.139 29.134 27.571 26.443Q 31.003 23.752 35.215 23.752Q 38.803 23.752 40.831 25.156Q 41.611 25.702 41.611 26.872L 41.767 36.388Q 41.767 37.558 40.831 37.558Q 39.973 37.558 39.739 36.544Q 38.647 32.254 37.633 29.914Q 36.619 27.574 35.527 26.677Q 34.435 25.780 33.109 25.780Q 31.549 25.780 29.872 27.574Q 28.195 29.368 27.064 33.385Q 25.933 37.402 25.933 43.954Q 25.933 52.300 28.078 56.512Q 30.223 60.724 33.655 60.724Q 36.385 60.724 38.218 58.462Q 40.051 56.200 41.377 50.272Q 41.611 49.414 42.313 49.414Q 43.249 49.414 43.015 50.974Q 42.157 56.434 40.636 59.437Q 39.115 62.440 37.048 63.571Q 34.981 64.702 32.407 64.702Z" fill="#FFFFFF"/><path d="M 61.643 64.702Q 57.665 64.702 54.506 62.011Q 51.347 59.320 49.475 54.640Q 47.603 49.960 47.603 44.188Q 47.603 38.416 49.475 33.814Q 51.347 29.212 54.545 26.482Q 57.743 23.752 61.643 23.752Q 65.621 23.752 68.780 26.482Q 71.939 29.212 73.811 33.814Q 75.683 38.416 75.683 44.188Q 75.683 49.960 73.850 54.640Q 72.017 59.320 68.819 62.011Q 65.621 64.702 61.643 64.702ZM 61.643 62.752Q 69.755 62.752 69.755 44.188Q 69.755 25.702 61.643 25.702Q 53.531 25.702 53.531 44.188Q 53.531 62.752 61.643 62.752Z" fill="#FFFFFF"/>
  <g transform="translate(120,72) scale(0.072000)">
    <path fill="#59592A" d="M180 9Q136 9 100.50-20.50Q65-50 44-105Q23-160 23-236Q23-321 48.50-384Q74-447 118-481.50Q162-516 216-516Q262-516 288-498Q298-491 298-476L300-354Q300-339 288-339Q277-339 274-352Q260-407 247-437Q234-467 220-478.50Q206-490 189-490Q169-490 147.50-467Q126-444 111.50-392.50Q97-341 97-257Q97-150 124.50-96Q152-42 196-42Q231-42 254.50-71Q278-100 295-176Q298-187 307-187Q319-187 316-167Q305-97 285.50-58.50Q266-20 239.50-5.50Q213 9 180 9M459 9Q417 9 390-17.50Q363-44 363-88Q363-131 390-169.50Q417-208 464-239Q511-270 571-289Q584-293 584-306L584-397Q584-445 569-465.50Q554-486 528-486Q503-486 482.50-463.50Q462-441 453-388Q448-356 431.50-341.50Q415-327 398-327Q370-327 370-355Q370-384 386.50-412.50Q403-441 430-464.50Q457-488 489-502Q521-516 553-516Q652-516 652-401L652-95Q652-53 673-53Q686-53 697-70.50Q708-88 708-130Q708-146 721-146Q733-146 733-129Q733-56 707.50-23.50Q682 9 650 9Q626 9 612-10.50Q598-30 593-57Q592-67 584.50-67.50Q577-68 570-58Q546-25 521-8Q496 9 459 9M486-37Q512-37 534-55.50Q556-74 570-105Q584-136 584-175L584-248Q584-267 563-259Q502-237 468.50-198.50Q435-160 435-106Q435-37 486-37M892-446Q933-516 991-516Q1024-516 1040-496.50Q1056-477 1056-453Q1056-434 1046.50-422Q1037-410 1017-410Q1001-410 993.50-417.50Q986-425 981.50-435Q977-445 971-452.50Q965-460 951-460Q933-460 917-438.50Q901-417 890.50-381Q880-345 880-299L880-67Q880-46 886.50-37Q893-28 914-26L941-23Q952-21 952-12Q952 0 937 0L768 0Q753 0 753-11Q753-20 766-23L778-25Q799-29 805.50-37.50Q812-46 812-67L812-403Q812-421 806.50-427.50Q801-434 787-436L766-439Q753-440 753-450Q753-458 769-461Q800-466 816.50-477Q833-488 851-504Q860-513 866-513Q875-513 875-501L875-447Q875-440 881-438.50Q887-437 892-446M1248 9Q1200 9 1162-23Q1124-55 1101.50-113.50Q1079-172 1079-249Q1079-328 1102-388Q1125-448 1165-482Q1205-516 1254-516Q1313-516 1349.50-467.50Q1386-419 1386-310Q1386-277 1361-277L1171-277Q1151-277 1151-254Q1151-148 1182-95Q1213-42 1261-42Q1299-42 1323-69Q1347-96 1362-160Q1365-171 1375-171Q1387-171 1384-151Q1368-62 1333-26.50Q1298 9 1248 9M1168-302L1269-302Q1317-302 1317-352Q1317-417 1301-454Q1285-491 1253-491Q1214-491 1187.50-446Q1161-401 1153-318Q1151-302 1168-302M1603 9Q1555 9 1517-23Q1479-55 1456.50-113.50Q1434-172 1434-249Q1434-328 1457-388Q1480-448 1520-482Q1560-516 1609-516Q1668-516 1704.50-467.50Q1741-419 1741-310Q1741-277 1716-277L1526-277Q1506-277 1506-254Q1506-148 1537-95Q1568-42 1616-42Q1654-42 1678-69Q1702-96 1717-160Q1720-171 1730-171Q1742-171 1739-151Q1723-62 1688-26.50Q1653 9 1603 9M1523-302L1624-302Q1672-302 1672-352Q1672-417 1656-454Q1640-491 1608-491Q1569-491 1542.50-446Q1516-401 1508-318Q1506-302 1523-302M1920-446Q1961-516 2019-516Q2052-516 2068-496.50Q2084-477 2084-453Q2084-434 2074.50-422Q2065-410 2045-410Q2029-410 2021.50-417.50Q2014-425 2009.50-435Q2005-445 1999-452.50Q1993-460 1979-460Q1961-460 1945-438.50Q1929-417 1918.50-381Q1908-345 1908-299L1908-67Q1908-46 1914.50-37Q1921-28 1942-26L1969-23Q1980-21 1980-12Q1980 0 1965 0L1796 0Q1781 0 1781-11Q1781-20 1794-23L1806-25Q1827-29 1833.50-37.50Q1840-46 1840-67L1840-403Q1840-421 1834.50-427.50Q1829-434 1815-436L1794-439Q1781-440 1781-450Q1781-458 1797-461Q1828-466 1844.50-477Q1861-488 1879-504Q1888-513 1894-513Q1903-513 1903-501L1903-447Q1903-440 1909-438.50Q1915-437 1920-446M2394-259L2148-259Q2138-259 2138-269L2138-283Q2138-293 2148-293L2394-293Q2404-293 2404-283L2404-269Q2404-259 2394-259M2689 9Q2638 9 2597.50-25.50Q2557-60 2533-120Q2509-180 2509-254Q2509-328 2533-387Q2557-446 2598-481Q2639-516 2689-516Q2740-516 2780.50-481Q2821-446 2845-387Q2869-328 2869-254Q2869-180 2845.50-120Q2822-60 2781-25.50Q2740 9 2689 9M2689-16Q2793-16 2793-254Q2793-491 2689-491Q2585-491 2585-254Q2585-16 2689-16M3102 205L2921 205Q2906 205 2906 194Q2906 183 2919 182L2933 180Q2954 177 2960.50 168Q2967 159 2967 138L2967-403Q2967-421 2961.50-427.50Q2956-434 2942-436L2921-439Q2908-440 2908-450Q2908-458 2924-461Q2955-466 2971.50-477Q2988-488 3006-504Q3015-513 3021-513Q3030-513 3030-501L3030-470Q3030-463 3036-460.50Q3042-458 3050-466L3061-477Q3081-497 3102-506.50Q3123-516 3150-516Q3196-516 3231.50-485.50Q3267-455 3287.50-401Q3308-347 3308-274Q3308-191 3282-127Q3256-63 3210.50-27Q3165 9 3106 9Q3076 9 3053-2Q3035-10 3035 9L3035 138Q3035 159 3041.50 166.50Q3048 174 3069 177L3106 182Q3117 184 3117 193Q3117 205 3102 205M3109-16Q3165-16 3199.50-82Q3234-148 3234-260Q3234-363 3204-417Q3174-471 3119-471Q3085-471 3060-443Q3035-415 3035-365L3035-113Q3035-68 3055.50-42Q3076-16 3109-16M3469 9Q3446 9 3420 3.50Q3394-2 3378-10Q3369-15 3369-27L3366-139Q3366-156 3379-156Q3390-156 3394-140Q3411-69 3435.50-43Q3460-17 3495-17Q3524-17 3543-39.50Q3562-62 3562-102Q3562-142 3540-173Q3518-204 3466-241Q3414-276 3390-311.50Q3366-347 3366-389Q3366-446 3406-481Q3446-516 3512-516Q3532-516 3551-511.50Q3570-507 3585-497Q3594-491 3594-481L3596-371Q3596-356 3584-356Q3577-356 3574-360.50Q3571-365 3569-372Q3549-437 3529-462.50Q3509-488 3480-488Q3454-488 3437-470Q3420-452 3420-425Q3420-390 3441-364Q3462-338 3517-300Q3567-264 3592.50-222.50Q3618-181 3618-132Q3618-68 3577-29.50Q3536 9 3469 9"/>
  </g>
</svg>